# xmcd
#
# Track frame offsets: 
#        150
#        15412
#        35250
#        58841
#        77158
#        94005
#        115053
#        139253
#        153717
#        173552
#        193203
#        214062
#
# Disc length: 3134 seconds
#
# Revision: 3
# Processed by: cddbd v1.5.2PL0 Copyright (c) Steve Scherf et al.
# Submitted via: ExactAudioCopy v0.99pb5
#
DISCID=9e0c3c0c
DTITLE=David Hallyday - Révélation
DYEAR=2002
DGENRE=Rock
TTITLE0=Repenses-y si tu veux
TTITLE1=L'idéal
TTITLE2=Sous la pluie de novembre
TTITLE3=Mon dernier combat
TTITLE4=C'est pas de l'amour
TTITLE5=Rêver encore
TTITLE6=7 jours par semaine
TTITLE7=Lécher tes blessures
TTITLE8=Tu n'es pas seul
TTITLE9=Rien à faire
TTITLE10=Soleil
TTITLE11=Where is David
EXTD=Date wrong is not 0044 but 2002 ! Hi !
EXTT0=
EXTT1=
EXTT2=
EXTT3=
EXTT4=
EXTT5=
EXTT6=
EXTT7=
EXTT8=
EXTT9=
EXTT10=
EXTT11=
PLAYORDER=
